# xmcd CD database file
#
# Track frame offsets:
#	150
#	19217
#	39767
#	55165
#	82747
#	98490
#	114022
#	133820
#	149162
#	163555
#	185407
#
# Disc length: 2724 seconds
#
# Revision: 1
# Processed by: cddbd v1.5.1PL0 Copyright (c) Steve Scherf et al.
# Submitted via: CDex 1.51
#
DISCID=830aa20b
DTITLE=Thunderhead - Ugly Side
DYEAR=1999
DGENRE=Metal
TTITLE0=Liar
TTITLE1=Rock Bottom
TTITLE2=Footsteps Of Fear
TTITLE3=Blood
TTITLE4=Pull The Plug
TTITLE5=Ugly Side
TTITLE6=High And Don't Care [Instr.]
TTITLE7=Pieces Of Pain
TTITLE8=35 Minutes (Revisited)
TTITLE9=Got 2 End It
TTITLE10=A Real Hard Time
EXTD=YEAR: 1999
EXTT0=
EXTT1=
EXTT2=
EXTT3=
EXTT4=
EXTT5=
EXTT6=
EXTT7=
EXTT8=
EXTT9=
EXTT10=
PLAYORDER=
